<ttFont>
<head>
    <!-- Most of this table will be recalculated by the compiler -->
    <tableVersion value="1.0"/>
    <fontRevision value="1.0"/>
    <checkSumAdjustment value="0x87faf3a0"/>
    <magicNumber value="0x5f0f3cf5"/>
    <flags value="00000000 00001011"/>
    <unitsPerEm value="1000"/>
    <created value="Tue Apr 12 14:44:11 2016"/>
    <modified value="Tue Apr 12 14:44:11 2016"/>
    <xMin value="0"/>
    <yMin value="0"/>
    <xMax value="5300"/>
    <yMax value="5500"/>
    <macStyle value="00000000 00000000"/>
    <lowestRecPPEM value="8"/>
    <fontDirectionHint value="2"/>
    <indexToLocFormat value="0"/>
    <glyphDataFormat value="0"/>
  </head>
          <CharString index="0">
            1000 1000 -1000 hlineto
            return
          </CharString>
        <CharString name=".notdef">
          0 50 566 50 hstem
          50 50 800 50 vstem
          50 hmoveto
          900 666 -900 hlineto
          50 -616 rmoveto
          566 800 -566 vlineto
          endchar
        </CharString>
        <CharString name="A">
          21 -21 1000 -20 hstem
          0 1000 vstem
          0 vmoveto
          -107 callsubr
          endchar
        </CharString>
        <CharString name="B">
          21 -21 1000 -20 hstem
          0 1000 vstem
          0 vmoveto
          -107 callsubr
          endchar
        </CharString>
        <CharString name="C">
          21 -21 1000 -20 hstem
          0 1000 vstem
          0 vmoveto
          -107 callsubr
          endchar
        </CharString>
        <CharString name="D">
          21 -21 1000 -20 hstem
          0 1000 vstem
          0 vmoveto
          -107 callsubr
          endchar
        </CharString>
        <CharString name="E">
          21 -21 1000 -20 hstem
          0 1000 vstem
          0 vmoveto
          -107 callsubr
          endchar
        </CharString>
        <CharString name="F">
          21 -21 1000 -20 hstem
          0 1000 vstem
          0 vmoveto
          -107 callsubr
          endchar
        </CharString>
        <CharString name="G">
          21 -21 1000 -20 hstem
          0 1000 vstem
          0 vmoveto
          -107 callsubr
          endchar
        </CharString>
        <CharString name="H">
          21 -21 1000 -20 hstem
          0 1000 vstem
          0 vmoveto
          -107 callsubr
          endchar
        </CharString>
        <CharString name="I">
          21 -21 1000 -20 hstem
          0 1000 vstem
          0 vmoveto
          -107 callsubr
          endchar
        </CharString>
        <CharString name="J">
          21 -21 1000 -20 hstem
          0 1000 vstem
          0 vmoveto
          -107 callsubr
          endchar
        </CharString>
        <CharString name="K">
          21 -21 1000 -20 hstem
          0 1000 vstem
          0 vmoveto
          -107 callsubr
          endchar
        </CharString>
        <CharString name="L">
          21 -21 1000 -20 hstem
          0 1000 vstem
          0 vmoveto
          -107 callsubr
          endchar
        </CharString>
        <CharString name="M">
          21 -21 1000 -20 hstem
          0 1000 vstem
          0 vmoveto
          -107 callsubr
          endchar
        </CharString>
        <CharString name="N">
          21 -21 1000 -20 hstem
          0 1000 vstem
          0 vmoveto
          -107 callsubr
          endchar
        </CharString>
        <CharString name="O">
          21 -21 1000 -20 hstem
          0 1000 vstem
          0 vmoveto
          -107 callsubr
          endchar
        </CharString>
        <CharString name="P">
          21 -21 1000 -20 hstem
          0 1000 vstem
          0 vmoveto
          -107 callsubr
          endchar
        </CharString>
        <CharString name="Q">
          21 -21 1000 -20 hstem
          0 1000 vstem
          0 vmoveto
          -107 callsubr
          endchar
        </CharString>
        <CharString name="R">
          21 -21 1000 -20 hstem
          0 1000 vstem
          0 vmoveto
          -107 callsubr
          endchar
        </CharString>
        <CharString name="S">
          21 -21 1000 -20 hstem
          0 1000 vstem
          0 vmoveto
          -107 callsubr
          endchar
        </CharString>
        <CharString name="T">
          21 -21 1000 -20 hstem
          0 1000 vstem
          0 vmoveto
          -107 callsubr
          endchar
        </CharString>
        <CharString name="U">
          21 -21 1000 -20 hstem
          0 1000 vstem
          0 vmoveto
          -107 callsubr
          endchar
        </CharString>
        <CharString name="V">
          21 -21 1000 -20 hstem
          0 1000 vstem
          0 vmoveto
          -107 callsubr
          endchar
        </CharString>
        <CharString name="W">
          21 -21 1000 -20 hstem
          0 1000 vstem
          0 vmoveto
          -107 callsubr
          endchar
        </CharString>
        <CharString name="X">
          21 -21 1000 -20 hstem
          0 1000 vstem
          0 vmoveto
          -107 callsubr
          endchar
        </CharString>
        <CharString name="Y">
          21 -21 1000 -20 hstem
          0 1000 vstem
          0 vmoveto
          -107 callsubr
          endchar
        </CharString>
        <CharString name="Z">
          21 -21 1000 -20 hstem
          0 1000 vstem
          0 vmoveto
          -107 callsubr
          endchar
        </CharString>
        <CharString name="arrowboth">
          21 -21 1000 -20 hstem
          0 1000 vstem
          0 vmoveto
          -107 callsubr
          endchar
        </CharString>
        <CharString name="arrowdblboth">
          21 -21 1000 -20 hstem
          0 1000 vstem
          0 vmoveto
          -107 callsubr
          endchar
        </CharString>
        <CharString name="arrowdbldown">
          21 -21 1000 -20 hstem
          0 1000 vstem
          0 vmoveto
          -107 callsubr
          endchar
        </CharString>
        <CharString name="arrowdblleft">
          21 -21 1000 -20 hstem
          0 1000 vstem
          0 vmoveto
          -107 callsubr
          endchar
        </CharString>
        <CharString name="arrowdblright">
          21 -21 1000 -20 hstem
          0 1000 vstem
          0 vmoveto
          -107 callsubr
          endchar
        </CharString>
        <CharString name="arrowdblup">
          21 -21 1000 -20 hstem
          0 1000 vstem
          0 vmoveto
          -107 callsubr
          endchar
        </CharString>
        <CharString name="arrowdown">
          21 -21 1000 -20 hstem
          0 1000 vstem
          0 vmoveto
          -107 callsubr
          endchar
        </CharString>
        <CharString name="arrowleft">
          21 -21 1000 -20 hstem
          0 1000 vstem
          0 vmoveto
          -107 callsubr
          endchar
        </CharString>
        <CharString name="arrowright">
          21 -21 1000 -20 hstem
          0 1000 vstem
          0 vmoveto
          -107 callsubr
          endchar
        </CharString>
        <CharString name="arrowup">
          21 -21 1000 -20 hstem
          0 1000 vstem
          0 vmoveto
          -107 callsubr
          endchar
        </CharString>
        <CharString name="arrowupdn">
          21 -21 1000 -20 hstem
          0 1000 vstem
          0 vmoveto
          -107 callsubr
          endchar
        </CharString>
        <CharString name="bottom">
          0 200 800 -20 hstem
          400 200 vstem
          0 vmoveto
          1000 200 -400 800 -200 -800 -400 hlineto
          endchar
        </CharString>
        <CharString name="braceleft">
          21 -21 1000 -20 hstem
          0 1000 vstem
          0 vmoveto
          -107 callsubr
          endchar
        </CharString>
        <CharString name="center">
          21 -21 400 200 400 -20 hstem
          400 200 vstem
          400 hmoveto
          200 400 400 200 -400 400 -200 -400 -400 -200 400 hlineto
          endchar
        </CharString>
        <CharString name="horizontal">
          400 200 hstem
          400 vmoveto
          1000 200 -1000 hlineto
          endchar
        </CharString>
        <CharString name="left">
          21 -21 400 200 400 -20 hstem
          0 200 vstem
          0 vmoveto
          200 400 800 200 -800 400 -200 hlineto
          endchar
        </CharString>
        <CharString name="right">
          21 -21 400 200 400 -20 hstem
          800 200 vstem
          800 hmoveto
          200 1000 -200 -400 -800 -200 800 hlineto
          endchar
        </CharString>
        <CharString name="space">
          endchar
        </CharString>
        <CharString name="top">
          21 -21 800 200 hstem
          400 200 vstem
          400 hmoveto
          200 800 400 200 -1000 -200 400 hlineto
          endchar
        </CharString>
        <CharString name="underscore">
          21 -21 1000 -20 hstem
          0 1000 vstem
          0 vmoveto
          -107 callsubr
          endchar
        </CharString>
        <CharString name="uni2190_size2">
          0 250 hstem
          0 vmoveto
          2150 250 -2150 hlineto
          endchar
        </CharString>
        <CharString name="uni2190_size3">
          0 200 hstem
          0 vmoveto
          2400 200 -2400 hlineto
          endchar
        </CharString>
        <CharString name="uni2190_size4">
          0 166 hstem
          0 vmoveto
          2900 166 -2900 hlineto
          endchar
        </CharString>
        <CharString name="uni2191_size2">
          21 -21 hstem
          0 250 vstem
          0 vmoveto
          250 2250 -250 hlineto
          endchar
        </CharString>
        <CharString name="uni2191_size3">
          21 -21 hstem
          0 200 vstem
          0 vmoveto
          200 2500 -200 hlineto
          endchar
        </CharString>
        <CharString name="uni2191_size4">
          21 -21 hstem
          0 166 vstem
          0 vmoveto
          166 3000 -166 hlineto
          endchar
        </CharString>
        <CharString name="uni2191_size5">
          21 -21 hstem
          0 500 vstem
          0 vmoveto
          500 3750 -500 hlineto
          endchar
        </CharString>
        <CharString name="uni2192_size2">
          0 250 hstem
          0 vmoveto
          2350 250 -2350 hlineto
          endchar
        </CharString>
        <CharString name="uni2192_size3">
          0 200 hstem
          0 vmoveto
          2600 200 -2600 hlineto
          endchar
        </CharString>
        <CharString name="uni2192_size4">
          0 166 hstem
          0 vmoveto
          3100 166 -3100 hlineto
          endchar
        </CharString>
        <CharString name="uni2192_size5">
          0 500 hstem
          0 vmoveto
          3850 500 -3850 hlineto
          endchar
        </CharString>
        <CharString name="uni2192_size6">
          0 333 hstem
          0 vmoveto
          4100 333 -4100 hlineto
          endchar
        </CharString>
        <CharString name="uni2193_size2">
          21 -21 hstem
          0 250 vstem
          0 vmoveto
          250 2450 -250 hlineto
          endchar
        </CharString>
        <CharString name="uni2193_size3">
          21 -21 hstem
          0 200 vstem
          0 vmoveto
          200 2700 -200 hlineto
          endchar
        </CharString>
        <CharString name="uni2193_size4">
          21 -21 hstem
          0 166 vstem
          0 vmoveto
          166 3200 -166 hlineto
          endchar
        </CharString>
        <CharString name="uni2193_size5">
          21 -21 hstem
          0 500 vstem
          0 vmoveto
          500 3950 -500 hlineto
          endchar
        </CharString>
        <CharString name="uni2193_size6">
          21 -21 hstem
          0 333 vstem
          0 vmoveto
          333 4200 -333 hlineto
          endchar
        </CharString>
        <CharString name="uni2193_size7">
          21 -21 hstem
          0 250 vstem
          0 vmoveto
          250 4700 -250 hlineto
          endchar
        </CharString>
        <CharString name="uni2195_size2">
          21 -21 hstem
          0 250 vstem
          0 vmoveto
          250 2650 -250 hlineto
          endchar
        </CharString>
        <CharString name="uni21A4">
          21 -21 1000 -20 hstem
          0 1000 vstem
          0 vmoveto
          -107 callsubr
          endchar
        </CharString>
        <CharString name="uni21A4_size2">
          0 250 hstem
          0 vmoveto
          2250 250 -2250 hlineto
          endchar
        </CharString>
        <CharString name="uni21A4_size3">
          0 200 hstem
          0 vmoveto
          2500 200 -2500 hlineto
          endchar
        </CharString>
        <CharString name="uni21A5">
          21 -21 1000 -20 hstem
          0 1000 vstem
          0 vmoveto
          -107 callsubr
          endchar
        </CharString>
        <CharString name="uni21A5_size2">
          21 -21 hstem
          0 250 vstem
          0 vmoveto
          250 2350 -250 hlineto
          endchar
        </CharString>
        <CharString name="uni21A5_size3">
          21 -21 hstem
          0 200 vstem
          0 vmoveto
          200 2600 -200 hlineto
          endchar
        </CharString>
        <CharString name="uni21A5_size4">
          21 -21 hstem
          0 166 vstem
          0 vmoveto
          166 3100 -166 hlineto
          endchar
        </CharString>
        <CharString name="uni21A6">
          21 -21 1000 -20 hstem
          0 1000 vstem
          0 vmoveto
          -107 callsubr
          endchar
        </CharString>
        <CharString name="uni21A6_size2">
          0 250 hstem
          0 vmoveto
          2450 250 -2450 hlineto
          endchar
        </CharString>
        <CharString name="uni21A6_size3">
          0 200 hstem
          0 vmoveto
          2700 200 -2700 hlineto
          endchar
        </CharString>
        <CharString name="uni21A6_size4">
          0 166 hstem
          0 vmoveto
          3200 166 -3200 hlineto
          endchar
        </CharString>
        <CharString name="uni21A6_size5">
          0 500 hstem
          0 vmoveto
          3950 500 -3950 hlineto
          endchar
        </CharString>
        <CharString name="uni21A7">
          21 -21 1000 -20 hstem
          0 1000 vstem
          0 vmoveto
          -107 callsubr
          endchar
        </CharString>
        <CharString name="uni21A7_size2">
          21 -21 hstem
          0 250 vstem
          0 vmoveto
          250 2550 -250 hlineto
          endchar
        </CharString>
        <CharString name="uni21A7_size3">
          21 -21 hstem
          0 200 vstem
          0 vmoveto
          200 2800 -200 hlineto
          endchar
        </CharString>
        <CharString name="uni21A7_size4">
          21 -21 hstem
          0 166 vstem
          0 vmoveto
          166 3300 -166 hlineto
          endchar
        </CharString>
        <CharString name="uni21A7_size5">
          21 -21 hstem
          0 500 vstem
          0 vmoveto
          500 4050 -500 hlineto
          endchar
        </CharString>
        <CharString name="uni21A7_size6">
          21 -21 hstem
          0 333 vstem
          0 vmoveto
          333 4300 -333 hlineto
          endchar
        </CharString>
        <CharString name="uni21C7">
          21 -21 1000 -20 hstem
          0 1000 vstem
          0 vmoveto
          -107 callsubr
          endchar
        </CharString>
        <CharString name="uni21C7_size2">
          0 250 hstem
          0 vmoveto
          1950 250 -1950 hlineto
          endchar
        </CharString>
        <CharString name="uni21C7_size3">
          0 200 hstem
          0 vmoveto
          2200 200 -2200 hlineto
          endchar
        </CharString>
        <CharString name="uni21C8">
          21 -21 1000 -20 hstem
          0 1000 vstem
          0 vmoveto
          -107 callsubr
          endchar
        </CharString>
        <CharString name="uni21C8_size2">
          21 -21 hstem
          0 250 vstem
          0 vmoveto
          250 2050 -250 hlineto
          endchar
        </CharString>
        <CharString name="uni21C8_size3">
          21 -21 hstem
          0 200 vstem
          0 vmoveto
          200 2300 -200 hlineto
          endchar
        </CharString>
        <CharString name="uni21C8_size4">
          21 -21 hstem
          0 166 vstem
          0 vmoveto
          166 2800 -166 hlineto
          endchar
        </CharString>
        <CharString name="uni21C9">
          21 -21 1000 -20 hstem
          0 1000 vstem
          0 vmoveto
          -107 callsubr
          endchar
        </CharString>
        <CharString name="uni21C9_size2">
          0 250 hstem
          0 vmoveto
          2150 250 -2150 hlineto
          endchar
        </CharString>
        <CharString name="uni21C9_size3">
          0 200 hstem
          0 vmoveto
          2400 200 -2400 hlineto
          endchar
        </CharString>
        <CharString name="uni21C9_size4">
          0 166 hstem
          0 vmoveto
          2900 166 -2900 hlineto
          endchar
        </CharString>
        <CharString name="uni21C9_size5">
          0 500 hstem
          0 vmoveto
          3650 500 -3650 hlineto
          endchar
        </CharString>
        <CharString name="uni21CA">
          21 -21 1000 -20 hstem
          0 1000 vstem
          0 vmoveto
          -107 callsubr
          endchar
        </CharString>
        <CharString name="uni21CA_size2">
          21 -21 hstem
          0 250 vstem
          0 vmoveto
          250 2250 -250 hlineto
          endchar
        </CharString>
        <CharString name="uni21CA_size3">
          21 -21 hstem
          0 200 vstem
          0 vmoveto
          200 2500 -200 hlineto
          endchar
        </CharString>
        <CharString name="uni21CA_size4">
          21 -21 hstem
          0 166 vstem
          0 vmoveto
          166 3000 -166 hlineto
          endchar
        </CharString>
        <CharString name="uni21CA_size5">
          21 -21 hstem
          0 500 vstem
          0 vmoveto
          500 3750 -500 hlineto
          endchar
        </CharString>
        <CharString name="uni21CA_size6">
          21 -21 hstem
          0 333 vstem
          0 vmoveto
          333 4000 -333 hlineto
          endchar
        </CharString>
        <CharString name="uni21D0_size2">
          0 250 hstem
          0 vmoveto
          2850 250 -2850 hlineto
          endchar
        </CharString>
        <CharString name="uni21D0_size3">
          0 200 hstem
          0 vmoveto
          3100 200 -3100 hlineto
          endchar
        </CharString>
        <CharString name="uni21D0_size4">
          0 166 hstem
          0 vmoveto
          3600 166 -3600 hlineto
          endchar
        </CharString>
        <CharString name="uni21D0_size5">
          0 500 hstem
          0 vmoveto
          4350 500 -4350 hlineto
          endchar
        </CharString>
        <CharString name="uni21D1_size2">
          21 -21 hstem
          0 250 vstem
          0 vmoveto
          250 2950 -250 hlineto
          endchar
        </CharString>
        <CharString name="uni21D1_size3">
          21 -21 hstem
          0 200 vstem
          0 vmoveto
          200 3200 -200 hlineto
          endchar
        </CharString>
        <CharString name="uni21D1_size4">
          21 -21 hstem
          0 166 vstem
          0 vmoveto
          166 3700 -166 hlineto
          endchar
        </CharString>
        <CharString name="uni21D1_size5">
          21 -21 hstem
          0 500 vstem
          0 vmoveto
          500 4450 -500 hlineto
          endchar
        </CharString>
        <CharString name="uni21D1_size6">
          21 -21 hstem
          0 333 vstem
          0 vmoveto
          333 4700 -333 hlineto
          endchar
        </CharString>
        <CharString name="uni21D2_size2">
          0 250 hstem
          0 vmoveto
          3050 250 -3050 hlineto
          endchar
        </CharString>
        <CharString name="uni21D2_size3">
          0 200 hstem
          0 vmoveto
          3300 200 -3300 hlineto
          endchar
        </CharString>
        <CharString name="uni21D2_size4">
          0 166 hstem
          0 vmoveto
          3800 166 -3800 hlineto
          endchar
        </CharString>
        <CharString name="uni21D2_size5">
          0 500 hstem
          0 vmoveto
          4550 500 -4550 hlineto
          endchar
        </CharString>
        <CharString name="uni21D2_size6">
          0 333 hstem
          0 vmoveto
          4800 333 -4800 hlineto
          endchar
        </CharString>
        <CharString name="uni21D2_size7">
          0 250 hstem
          0 vmoveto
          5300 250 -5300 hlineto
          endchar
        </CharString>
        <CharString name="uni21D4_size2">
          0 250 hstem
          0 vmoveto
          3250 250 -3250 hlineto
          endchar
        </CharString>
        <CharString name="uni21D5">
          21 -21 1000 -20 hstem
          0 1000 vstem
          0 vmoveto
          -107 callsubr
          endchar
        </CharString>
        <CharString name="uni21D5_size2">
          21 -21 hstem
          0 250 vstem
          0 vmoveto
          250 3350 -250 hlineto
          endchar
        </CharString>
        <CharString name="uni21D5_size3">
          21 -21 hstem
          0 200 vstem
          0 vmoveto
          200 3600 -200 hlineto
          endchar
        </CharString>
        <CharString name="uni21E6">
          21 -21 1000 -20 hstem
          0 1000 vstem
          0 vmoveto
          -107 callsubr
          endchar
        </CharString>
        <CharString name="uni21E6_size2">
          0 250 hstem
          0 vmoveto
          3150 250 -3150 hlineto
          endchar
        </CharString>
        <CharString name="uni21E6_size3">
          0 200 hstem
          0 vmoveto
          3400 200 -3400 hlineto
          endchar
        </CharString>
        <CharString name="uni21E6_size4">
          0 166 hstem
          0 vmoveto
          3900 166 -3900 hlineto
          endchar
        </CharString>
        <CharString name="uni21E6_size5">
          0 500 hstem
          0 vmoveto
          4650 500 -4650 hlineto
          endchar
        </CharString>
        <CharString name="uni21E6_size6">
          0 333 hstem
          0 vmoveto
          4900 333 -4900 hlineto
          endchar
        </CharString>
        <CharString name="uni21E7">
          21 -21 1000 -20 hstem
          0 1000 vstem
          0 vmoveto
          -107 callsubr
          endchar
        </CharString>
        <CharString name="uni21E7_size2">
          21 -21 hstem
          0 250 vstem
          0 vmoveto
          250 3250 -250 hlineto
          endchar
        </CharString>
        <CharString name="uni21E7_size3">
          21 -21 hstem
          0 200 vstem
          0 vmoveto
          200 3500 -200 hlineto
          endchar
        </CharString>
        <CharString name="uni21E7_size4">
          21 -21 hstem
          0 166 vstem
          0 vmoveto
          166 4000 -166 hlineto
          endchar
        </CharString>
        <CharString name="uni21E7_size5">
          21 -21 hstem
          0 500 vstem
          0 vmoveto
          500 4750 -500 hlineto
          endchar
        </CharString>
        <CharString name="uni21E7_size6">
          21 -21 hstem
          0 333 vstem
          0 vmoveto
          333 5000 -333 hlineto
          endchar
        </CharString>
        <CharString name="uni21E7_size7">
          21 -21 hstem
          0 250 vstem
          0 vmoveto
          250 5500 -250 hlineto
          endchar
        </CharString>
        <CharString name="uni21E8">
          21 -21 1000 -20 hstem
          0 1000 vstem
          0 vmoveto
          -107 callsubr
          endchar
        </CharString>
        <CharString name="uni21E9">
          21 -21 1000 -20 hstem
          0 1000 vstem
          0 vmoveto
          -107 callsubr
          endchar
        </CharString>
        <CharString name="uni21E9_size2">
          21 -21 hstem
          0 250 vstem
          0 vmoveto
          250 3450 -250 hlineto
          endchar
        </CharString>
        <CharString name="uni23A7">
          21 -21 1000 -20 hstem
          0 1000 vstem
          0 vmoveto
          -107 callsubr
          endchar
        </CharString>
        <CharString name="uni23A8">
          21 -21 1000 -20 hstem
          0 1000 vstem
          0 vmoveto
          -107 callsubr
          endchar
        </CharString>
        <CharString name="uni23A9">
          21 -21 1000 -20 hstem
          0 1000 vstem
          0 vmoveto
          -107 callsubr
          endchar
        </CharString>
        <CharString name="uni23AA">
          21 -21 1000 -20 hstem
          0 1000 vstem
          0 vmoveto
          -107 callsubr
          endchar
        </CharString>
        <CharString name="vertical">
          21 -21 1000 -20 hstem
          400 200 vstem
          400 hmoveto
          200 1000 -200 hlineto
          endchar
        </CharString>
</ttFont>
